<?xml version="1.0" standalone="no"?>
<!DOCTYPE svg PUBLIC "-//W3C//DTD SVG 20010904//EN"
 "http://www.w3.org/TR/2001/REC-SVG-20010904/DTD/svg10.dtd">
<svg version="1.0" xmlns="http://www.w3.org/2000/svg"
 width="903.000000pt" height="220.000000pt" viewBox="0 0 903.000000 220.000000"
 preserveAspectRatio="xMidYMid meet">

<g transform="translate(0.000000,220.000000) scale(0.100000,-0.100000)"
fill="#000000" stroke="none">
<path d="M2505 1750 c-3 -5 -4 -14 -1 -19 6 -8 28 -91 102 -381 19 -74 44
-171 55 -215 12 -44 25 -95 31 -113 l10 -33 95 3 96 3 13 55 c7 30 18 75 23
100 5 25 21 92 35 150 13 58 27 124 31 147 5 30 10 40 21 36 8 -3 14 -15 14
-28 0 -12 4 -35 9 -51 5 -16 19 -74 32 -129 12 -55 32 -140 44 -190 l22 -90
96 -3 c84 -2 96 -1 101 15 3 10 20 72 36 138 17 66 47 181 67 255 19 74 39
151 43 170 4 19 17 67 28 107 17 61 17 73 5 77 -24 10 -161 7 -168 -3 -5 -8
-38 -162 -91 -421 -9 -41 -19 -79 -23 -83 -8 -8 -19 28 -41 128 -15 66 -49
215 -69 300 l-18 80 -69 3 c-87 4 -114 -3 -114 -28 0 -10 -16 -88 -35 -172
-19 -84 -39 -178 -45 -208 -17 -83 -24 -104 -35 -102 -5 1 -13 18 -16 39 -4
21 -16 83 -28 138 -11 55 -30 143 -41 195 -11 52 -22 105 -25 118 -5 21 -10
22 -95 22 -49 0 -92 -4 -95 -10z"/>
<path d="M3832 1748 c-27 -27 -13 -61 53 -129 36 -37 65 -75 65 -84 0 -10 16
-62 36 -117 19 -55 33 -106 30 -114 -8 -20 -171 -20 -179 0 -3 7 -2 17 2 22 4
5 13 27 20 48 12 36 12 41 -6 55 -76 61 -96 76 -105 76 -6 0 -21 -29 -35 -65
-14 -36 -28 -74 -33 -85 -4 -11 -22 -56 -38 -100 -17 -44 -46 -122 -65 -172
l-36 -93 89 0 c58 0 91 4 97 13 5 6 20 45 33 85 l23 72 143 0 143 0 14 -27 c8
-16 22 -54 31 -85 l18 -58 94 0 c95 0 103 4 84 38 -5 9 -34 85 -65 167 -31 83
-73 195 -95 250 -21 55 -55 145 -76 200 -20 55 -42 103 -48 107 -19 13 -181 9
-194 -4z"/>
<path d="M4465 1751 c-6 -6 -9 -158 -7 -386 l2 -376 88 3 87 3 3 138 3 137 58
0 59 0 58 -92 c31 -51 70 -114 87 -140 l29 -48 94 0 c58 0 94 4 94 10 0 6 -39
67 -86 136 -47 69 -87 131 -90 139 -3 7 10 22 31 35 79 49 114 112 115 206 0
123 -74 210 -199 234 -68 13 -414 13 -426 1z m413 -165 c46 -41 39 -126 -11
-157 -26 -15 -51 -19 -129 -19 l-98 0 0 101 0 101 109 -4 c89 -2 113 -6 129
-22z"/>
<path d="M5254 1752 c-6 -4 -8 -28 -5 -62 l6 -55 285 0 285 0 0 60 0 60 -280
2 c-154 2 -285 0 -291 -5z"/>
<path d="M5995 1748 c-3 -7 -4 -180 -3 -383 l3 -370 263 -3 262 -2 0 75 0 75
-172 2 -173 3 -5 305 -5 305 -83 3 c-60 2 -84 -1 -87 -10z"/>
<path d="M6667 1754 c-4 -4 -7 -178 -7 -386 l0 -378 90 0 90 0 -2 383 -3 382
-80 3 c-45 1 -84 0 -88 -4z"/>
<path d="M7027 1753 c-4 -3 -7 -177 -7 -385 l0 -378 85 0 85 0 0 240 c0 151 4
240 10 240 5 0 20 -17 33 -37 13 -21 55 -87 93 -147 38 -61 71 -114 73 -120 2
-5 28 -47 58 -93 l53 -83 85 0 c47 0 85 3 85 8 0 4 1 175 3 380 2 428 14 386
-103 380 l-65 -3 -3 -244 c-2 -242 -2 -244 -22 -226 -11 10 -20 22 -20 26 0 7
-40 72 -214 347 l-65 102 -79 0 c-43 0 -82 -3 -85 -7z"/>
<path d="M7874 1746 c-3 -7 -4 -35 -2 -62 l3 -49 293 -3 293 -2 -3 62 -3 63
-288 3 c-238 2 -288 0 -293 -12z"/>
<path d="M1240 1733 c0 -20 5 -28 71 -140 26 -43 71 -123 102 -178 81 -147 91
-165 99 -165 4 0 19 18 33 40 l25 40 -30 58 c-32 61 -74 135 -108 192 -39 63
-33 71 51 68 69 -3 72 -4 69 -26 -1 -13 10 -44 24 -68 30 -51 35 -50 75 21 26
47 89 169 89 173 0 1 -112 2 -250 2 -231 0 -250 -1 -250 -17z"/>
<path d="M1914 1709 c-17 -24 -36 -57 -44 -74 -8 -16 -22 -41 -31 -55 -9 -14
-45 -74 -79 -135 -35 -60 -86 -148 -114 -195 -62 -105 -78 -132 -110 -191 -14
-26 -38 -67 -54 -90 -16 -24 -43 -69 -59 -99 -52 -95 -98 -173 -135 -231 -22
-35 -33 -61 -28 -69 6 -10 47 -11 186 -7 99 4 270 7 381 7 l203 0 25 40 c14
22 25 42 25 45 0 3 -141 5 -312 5 -172 0 -319 4 -327 9 -12 7 -8 19 21 63 19
29 46 73 59 98 14 25 32 56 40 70 23 35 109 183 139 236 14 24 54 92 89 151
35 58 69 116 75 127 6 12 40 69 75 129 l64 107 69 0 c77 0 92 -12 64 -54 -24
-38 -75 -129 -151 -272 -12 -23 -38 -68 -57 -100 -19 -33 -56 -98 -82 -146
-46 -85 -61 -99 -82 -78 -7 7 -19 -5 -37 -39 -15 -27 -27 -55 -27 -62 0 -20
72 -118 87 -118 6 -1 36 43 66 97 53 95 213 372 251 435 11 18 29 50 40 72 12
22 44 78 71 125 108 185 126 218 117 223 -4 3 -93 8 -198 12 l-191 7 -29 -43z"/>
<path d="M647 1734 c-5 -6 39 -96 93 -189 13 -22 38 -67 55 -100 18 -33 42
-78 55 -100 26 -45 42 -75 145 -260 40 -71 96 -174 124 -227 32 -60 57 -95 65
-92 7 3 30 36 52 75 21 39 44 78 49 87 6 10 23 40 39 67 16 28 47 79 68 114
l40 63 -30 41 c-16 23 -34 43 -39 44 -13 5 -59 -70 -115 -182 -11 -22 -32 -55
-45 -73 -31 -42 -33 -40 -101 88 -101 192 -265 485 -279 502 -9 10 -13 25 -9
34 5 14 16 16 79 10 39 -4 79 -9 87 -12 8 -2 60 -87 114 -189 55 -102 105
-185 112 -185 13 0 54 63 54 84 0 7 -29 62 -65 121 -36 60 -65 110 -65 113 0
2 -13 23 -30 47 -16 24 -30 47 -30 51 0 4 -11 22 -26 41 l-25 33 -183 0 c-100
0 -185 -3 -189 -6z"/>
<path d="M5248 1231 c-2 -121 -1 -226 0 -231 2 -6 111 -10 293 -10 l290 0 -3
73 -3 72 -200 5 -200 5 0 80 0 80 183 3 182 2 0 65 0 65 -127 0 c-71 0 -192 3
-270 7 l-142 6 -3 -222z"/>
<path d="M7878 1445 c-5 -5 -8 -109 -8 -232 l0 -223 295 0 296 0 -3 73 -3 72
-202 3 -203 2 0 85 0 85 183 2 182 3 3 63 3 62 -128 0 c-70 0 -191 3 -268 6
-77 4 -143 3 -147 -1z"/>
<path d="M2680 875 c0 -13 328 -15 2890 -15 2562 0 2890 2 2890 15 0 13 -328
15 -2890 15 -2562 0 -2890 -2 -2890 -15z"/>
<path d="M2700 725 c0 -9 9 -15 25 -15 24 0 25 -2 25 -75 0 -68 2 -75 20 -75
18 0 20 7 20 75 0 73 1 75 25 75 16 0 25 6 25 15 0 12 -14 15 -70 15 -56 0
-70 -3 -70 -15z"/>
<path d="M3200 650 l0 -90 65 0 c51 0 65 3 65 15 0 10 -10 15 -29 15 -42 0
-61 9 -61 30 0 15 9 20 42 22 59 4 63 28 4 28 -39 0 -46 3 -46 20 0 17 7 20
45 20 33 0 45 4 45 15 0 12 -14 15 -65 15 l-65 0 0 -90z"/>
<path d="M3744 728 c-25 -11 -44 -48 -44 -82 0 -31 33 -72 64 -80 39 -10 95
18 96 47 0 13 -27 8 -40 -8 -15 -18 -51 -20 -68 -3 -16 16 -16 80 0 96 17 17
53 15 68 -3 22 -27 51 -17 32 11 -20 31 -70 41 -108 22z"/>
<path d="M4250 650 c0 -73 3 -90 15 -90 10 0 15 11 15 35 0 34 1 35 40 35 39
0 40 -1 40 -35 0 -24 5 -35 15 -35 12 0 15 17 15 90 0 72 -3 90 -14 90 -9 0
-16 -12 -18 -32 -3 -30 -6 -33 -40 -36 -37 -3 -38 -3 -38 32 0 25 -4 36 -15
36 -12 0 -15 -17 -15 -90z"/>
<path d="M4770 649 c0 -81 2 -90 18 -87 13 2 18 16 22 56 l5 52 35 -55 c21
-32 42 -55 53 -55 15 0 17 11 17 90 0 83 -1 90 -20 90 -17 0 -20 -7 -20 -50 0
-27 -4 -50 -8 -50 -5 0 -21 23 -36 50 -18 33 -34 50 -47 50 -17 0 -19 -8 -19
-91z"/>
<path d="M5334 726 c-34 -25 -49 -70 -34 -106 15 -37 63 -64 96 -56 58 15 85
98 47 145 -23 28 -81 37 -109 17z m70 -22 c19 -7 22 -84 4 -102 -27 -27 -78 2
-78 45 0 49 32 73 74 57z"/>
<path d="M5830 650 l0 -90 60 0 c47 0 60 3 60 15 0 9 -9 15 -24 15 -51 0 -56
8 -56 81 0 62 -2 69 -20 69 -19 0 -20 -7 -20 -90z"/>
<path d="M6347 720 c-50 -39 -43 -116 12 -145 42 -21 59 -19 92 14 20 20 29
39 29 61 0 39 -47 90 -83 90 -13 0 -36 -9 -50 -20z m87 -42 c21 -60 -28 -112
-68 -73 -19 19 -21 76 -4 93 22 22 62 10 72 -20z"/>
<path d="M6888 720 c-72 -56 -14 -189 66 -152 17 7 27 7 35 -1 17 -17 33 6 29
44 -3 30 -7 34 -35 37 -35 3 -44 -11 -17 -26 22 -12 9 -32 -21 -32 -48 0 -72
61 -41 103 14 19 51 23 61 7 3 -5 15 -10 25 -10 26 0 16 24 -16 39 -36 16 -58
14 -86 -9z"/>
<path d="M7400 650 c0 -73 3 -90 15 -90 12 0 15 17 15 90 0 73 -3 90 -15 90
-12 0 -15 -17 -15 -90z"/>
<path d="M7810 650 l0 -90 65 0 c50 0 65 3 65 14 0 11 -14 16 -47 18 -40 3
-48 6 -48 23 0 16 8 21 38 25 21 3 38 10 38 15 0 6 -17 12 -38 15 -58 8 -51
34 10 38 33 2 47 7 47 18 0 11 -15 14 -65 14 l-65 0 0 -90z"/>
<path d="M8317 722 c-33 -36 -13 -68 53 -87 27 -8 42 -24 34 -37 -7 -12 -48
-10 -61 3 -6 6 -19 9 -29 7 -17 -3 -17 -5 4 -26 40 -40 122 -18 122 34 0 19
-9 28 -37 40 -60 26 -64 28 -66 39 -1 15 33 18 58 5 36 -19 53 -8 27 18 -27
27 -82 29 -105 4z"/>
</g>
</svg>
