<?xml version="1.0" standalone="no"?>
<!DOCTYPE svg PUBLIC "-//W3C//DTD SVG 20010904//EN"
 "http://www.w3.org/TR/2001/REC-SVG-20010904/DTD/svg10.dtd">
<svg version="1.0" xmlns="http://www.w3.org/2000/svg"
 width="674.000000pt" height="166.000000pt" viewBox="0 0 674.000000 166.000000"
 preserveAspectRatio="xMidYMid meet">

<g transform="translate(0.000000,166.000000) scale(0.100000,-0.100000)"
fill="#000000" stroke="none">
<path d="M0 830 l0 -830 3370 0 3370 0 0 830 0 830 -3370 0 -3370 0 0 -830z
m1278 438 c8 -8 6 -17 -8 -36 -11 -14 -20 -31 -20 -38 0 -17 -69 -114 -81
-114 -5 0 -9 6 -9 14 0 7 -7 19 -15 26 -8 7 -15 23 -15 36 0 22 -4 24 -46 24
-46 0 -46 0 -30 -22 8 -13 37 -60 62 -106 l46 -83 -18 -35 c-27 -50 -46 -43
-83 29 -40 78 -55 104 -108 192 -40 67 -47 85 -44 113 1 17 351 18 369 0z
m426 -8 c5 -5 -1 -22 -13 -38 -11 -17 -21 -33 -21 -37 0 -4 -20 -41 -45 -82
-25 -40 -45 -77 -45 -81 0 -4 -15 -30 -34 -58 -19 -28 -42 -66 -51 -85 -8 -19
-27 -52 -40 -74 -14 -22 -31 -51 -38 -65 -7 -14 -24 -44 -39 -66 -15 -23 -34
-58 -42 -78 -8 -20 -21 -36 -28 -36 -21 1 -68 75 -68 108 0 32 36 86 51 76 15
-9 32 13 89 121 82 155 134 251 139 255 8 7 31 48 31 55 0 4 -21 5 -46 3 -46
-3 -47 -4 -85 -68 -21 -36 -42 -72 -46 -80 -6 -13 -58 -103 -90 -155 -7 -11
-18 -31 -25 -45 -7 -14 -27 -46 -45 -72 -18 -26 -39 -62 -48 -80 -22 -46 -50
-95 -63 -111 -6 -7 -16 -25 -21 -40 l-11 -27 227 1 c137 1 229 -3 230 -8 2 -6
-3 -16 -12 -23 -8 -7 -15 -18 -15 -26 0 -29 -41 -34 -309 -34 l-271 0 0 22 c0
12 6 29 14 37 8 9 29 43 47 76 17 33 37 67 44 75 7 8 29 47 50 85 21 39 49 84
62 102 12 17 23 38 23 47 0 8 4 17 9 21 8 4 63 98 127 215 10 19 22 37 27 38
4 2 7 8 7 13 0 5 11 26 23 47 13 20 32 50 41 65 l17 28 142 -7 c78 -3 146 -10
151 -14z m244 3 c5 -10 13 -40 17 -68 4 -27 10 -54 15 -60 4 -5 13 -52 20
-103 17 -125 29 -130 45 -22 4 25 11 50 15 55 4 6 13 42 19 80 7 39 17 85 24
103 11 31 12 32 73 32 65 0 74 -6 74 -54 0 -12 4 -26 9 -31 5 -6 16 -55 26
-110 9 -55 21 -104 26 -110 5 -5 10 -20 10 -35 1 -14 5 -2 10 25 5 28 13 59
18 70 5 11 14 53 20 93 6 41 17 92 24 113 l12 39 67 0 c38 0 68 -4 68 -10 0
-19 -21 -116 -30 -135 -5 -11 -14 -47 -21 -80 -6 -33 -15 -64 -19 -70 -4 -5
-13 -41 -20 -80 -7 -38 -16 -74 -20 -80 -5 -5 -11 -31 -15 -57 l-7 -48 -74 0
c-84 0 -87 3 -99 87 -4 29 -10 55 -15 58 -4 2 -13 41 -21 85 -16 104 -34 121
-43 43 -4 -31 -10 -61 -15 -67 -5 -6 -14 -45 -20 -86 -19 -117 -21 -120 -108
-120 -71 0 -73 1 -73 24 0 14 -4 27 -8 30 -5 3 -14 38 -22 78 -7 40 -15 78
-19 83 -6 11 -32 107 -57 215 -9 36 -20 75 -26 87 -16 34 -2 43 67 43 51 0 66
-4 73 -17z m957 -10 c3 -15 15 -47 26 -70 11 -24 22 -57 26 -73 3 -17 9 -30
13 -30 4 0 10 -13 13 -30 4 -16 15 -49 26 -73 11 -23 23 -56 27 -72 4 -17 13
-39 20 -50 8 -11 14 -26 14 -35 0 -8 6 -26 13 -40 32 -62 33 -60 -52 -60 l-78
0 -7 32 c-4 18 -12 45 -19 60 -12 28 -13 28 -109 28 l-96 0 -19 -57 -20 -58
-63 -3 c-69 -3 -87 5 -71 34 14 25 71 176 71 189 0 6 6 22 14 37 8 14 19 43
26 65 21 65 27 67 77 26 43 -36 45 -38 38 -80 l-6 -43 54 0 55 0 -17 55 c-9
30 -20 57 -24 61 -4 4 -7 16 -7 26 0 11 -23 43 -51 73 -42 44 -49 58 -44 77
11 33 22 38 96 38 64 0 67 -1 74 -27z m599 18 c3 -4 18 -11 34 -14 32 -7 94
-66 104 -99 21 -75 -11 -177 -65 -204 -35 -18 -31 -38 23 -109 35 -47 70 -107
70 -120 0 -3 -33 -5 -72 -5 l-73 1 -45 75 c-71 119 -73 121 -114 116 l-36 -4
0 -94 0 -94 -70 0 -70 0 0 280 0 280 154 0 c85 0 157 -4 160 -9z m661 -46 l0
-50 -210 0 -210 0 -3 39 c-6 69 -15 67 215 64 l208 -3 0 -50z m253 -167 l2
-217 123 -3 122 -3 0 -55 0 -55 -197 -3 -198 -2 0 280 0 281 73 -3 72 -3 3
-217z m470 -60 l2 -278 -70 0 -70 0 0 280 0 281 68 -3 67 -3 3 -277z m283 215
c23 -38 55 -88 71 -113 15 -25 32 -50 38 -57 5 -7 10 -14 10 -17 0 -3 12 -25
28 -49 l27 -43 -3 161 c-4 189 -5 188 85 183 l58 -3 0 -275 0 -275 -71 -3
c-65 -3 -71 -1 -82 20 -6 13 -32 55 -57 93 -25 39 -51 81 -57 95 -11 22 -77
120 -81 120 -1 0 -2 -73 -2 -162 l0 -163 -67 -3 -68 -3 0 281 0 280 64 0 64 0
43 -67z m854 12 l0 -50 -210 0 -210 0 -3 39 c-6 69 -15 67 215 64 l208 -3 0
-50z m-5254 35 c10 -6 19 -16 19 -24 0 -7 13 -30 30 -52 16 -21 30 -43 30 -47
0 -5 15 -32 34 -60 74 -115 73 -111 42 -151 -15 -20 -30 -36 -34 -36 -9 1 -48
63 -58 92 -3 13 -15 34 -25 47 -11 13 -19 29 -19 37 0 7 -3 14 -7 16 -5 2 -17
21 -28 43 -19 38 -22 40 -72 43 -57 3 -62 -1 -38 -35 8 -11 30 -49 48 -84 30
-57 64 -117 119 -214 10 -16 27 -50 38 -75 l21 -45 34 60 c76 136 89 154 107
144 10 -5 24 -22 32 -37 13 -26 12 -32 -16 -88 -16 -32 -37 -67 -45 -76 -8 -9
-27 -41 -42 -70 -38 -74 -54 -98 -68 -98 -7 0 -29 33 -49 73 -19 39 -40 77
-45 83 -5 6 -21 33 -35 60 -15 27 -43 81 -64 119 -21 39 -56 106 -80 150 -23
44 -46 85 -50 90 -23 29 -70 128 -65 136 8 12 262 12 286 -1z m3104 -200 c4
-6 62 -10 141 -10 l134 0 0 -50 0 -50 -130 0 -130 0 0 -60 0 -60 145 0 145 0
0 -55 0 -55 -217 2 -218 3 -3 159 c-2 108 1 163 9 172 13 16 114 19 124 4z
m1860 0 c4 -6 60 -10 136 -10 l129 0 0 -50 0 -50 -128 0 -127 0 0 -52 c0 -29
5 -56 10 -60 6 -4 70 -8 143 -8 l133 0 -3 -52 -3 -53 -210 0 -210 0 -3 160
c-1 87 0 165 2 172 6 16 122 18 131 3z m293 -417 c3 -10 -410 -13 -2042 -13
-1813 0 -2046 2 -2046 15 0 13 231 15 2042 13 1622 -2 2042 -6 2046 -15z
m-3978 -108 c0 -8 -9 -15 -20 -15 -17 0 -20 -7 -20 -51 0 -43 -3 -50 -17 -47
-14 2 -19 15 -21 51 -2 33 -7 47 -18 47 -7 0 -14 7 -14 15 0 12 13 15 55 15
42 0 55 -3 55 -15z m358 3 c-3 -7 -19 -14 -36 -16 -39 -4 -42 -20 -4 -24 33
-4 32 -22 -3 -26 -35 -5 -31 -20 7 -24 17 -2 33 -9 36 -16 3 -10 -9 -12 -49
-10 l-54 3 -3 63 -3 62 56 0 c41 0 56 -3 53 -12z m354 -5 c34 -31 10 -47 -32
-20 -17 10 -22 9 -30 -3 -5 -8 -10 -19 -10 -25 0 -5 5 -17 10 -25 8 -12 13
-13 30 -2 21 13 50 16 50 5 0 -3 -7 -15 -17 -25 -23 -26 -78 -24 -97 4 -33 47
-7 108 46 108 17 0 40 -7 50 -17z m308 -8 c0 -18 5 -25 20 -25 15 0 20 7 20
25 0 18 5 25 20 25 18 0 20 -7 20 -65 0 -58 -2 -65 -20 -65 -15 0 -20 7 -20
25 0 18 -5 25 -20 25 -15 0 -20 -7 -20 -25 0 -18 -5 -25 -20 -25 -18 0 -20 7
-20 65 0 58 2 65 20 65 15 0 20 -7 20 -25z m399 -7 l21 -33 0 33 c0 25 4 32
20 32 18 0 20 -7 20 -65 0 -63 -1 -65 -25 -65 -18 0 -26 7 -31 25 -3 14 -10
25 -15 25 -5 0 -9 -11 -9 -25 0 -18 -5 -25 -20 -25 -18 0 -20 7 -20 65 0 57 2
65 19 65 11 0 28 -15 40 -32z m421 22 c10 -6 15 -25 15 -55 0 -30 -5 -49 -15
-55 -24 -15 -72 -12 -92 7 -22 20 -23 70 -1 95 17 19 68 24 93 8z m310 -39 c0
-46 2 -50 27 -53 48 -6 39 -28 -11 -28 l-46 0 0 65 c0 51 3 65 15 65 11 0 15
-12 15 -49z m412 32 c22 -20 23 -70 1 -95 -17 -19 -68 -24 -93 -8 -10 6 -15
25 -15 55 0 30 5 49 15 55 24 15 72 12 92 -7z m380 0 c34 -31 10 -47 -32 -20
-17 10 -22 9 -30 -3 -17 -26 -7 -55 20 -57 16 -1 18 0 7 3 -28 8 -14 29 19 29
25 0 29 -4 32 -32 l3 -31 -58 1 -58 2 -9 37 c-7 29 -6 42 8 62 20 31 69 35 98
9z m308 -48 c0 -58 -2 -65 -20 -65 -18 0 -20 7 -20 65 0 58 2 65 20 65 18 0
20 -7 20 -65z m358 53 c-3 -7 -19 -14 -36 -16 -42 -4 -41 -20 1 -24 17 -2 32
-7 32 -13 0 -5 -15 -11 -32 -13 -45 -4 -42 -20 4 -24 20 -2 38 -9 41 -15 3
-10 -13 -13 -57 -13 l-61 0 0 65 0 65 56 0 c40 0 55 -4 52 -12z m347 -20 c1
-14 7 -33 14 -42 12 -14 11 -19 -5 -37 -13 -15 -28 -19 -58 -17 l-41 3 -2 50
c-4 71 0 77 49 73 39 -3 43 -6 43 -30z"/>
<path d="M3325 1096 l0 -66 70 0 c85 0 115 16 115 61 0 49 -24 64 -109 67
l-76 4 0 -66z"/>
<path d="M3827 513 c-13 -12 -7 -54 8 -60 24 -8 46 26 31 49 -11 18 -28 23
-39 11z"/>
<path d="M4544 502 c-9 -14 -9 -22 2 -36 19 -27 46 -13 42 21 -4 33 -28 41
-44 15z"/>
<path d="M5955 510 c3 -5 11 -10 16 -10 6 0 7 5 4 10 -3 6 -11 10 -16 10 -6 0
-7 -4 -4 -10z"/>
<path d="M5945 460 c3 -5 13 -10 21 -10 8 0 12 5 9 10 -3 6 -13 10 -21 10 -8
0 -12 -4 -9 -10z"/>
</g>
</svg>
